[Header]
FileType HTR
DataType HTRS
FileVersion 1
NumSegments 22
NumFrames 4
DataFrameRate 24
EulerRotationOrder ZYX
CalibrationUnits mm
RotationUnits Degrees
GlobalAxisofGravity Y
BoneLengthAxis Y
ScaleFactor 1.0
[SegmentNames&Hierarchy]
reference	GLOBAL
Hips	reference
Spine	Hips
Spine1	Spine
Neck	Spine1
Head	Neck
LeftShoulder	Spine1
LeftArm	LeftShoulder
LeftForeArm	LeftArm
LeftHand	LeftForeArm
RightShoulder	Spine1
RightArm	RightShoulder
RightForeArm	RightArm
RightHand	RightForeArm
LeftUpLeg	Hips
LeftLeg	LeftUpLeg
LeftFoot	LeftLeg
LeftToeBase	LeftFoot
RightUpLeg	Hips
RightLeg	RightUpLeg
RightFoot	RightLeg
RightToeBase	RightFoot
[BasePosition]
reference	0	0	0	0	0	0	1
Hips	0	0	0	0	0	0	1
Spine	0	0	0	0	-0	90	1
Spine1	0	0	0	0	0	0	1
Neck	0	0	0	-7.352430803	-7.352430803	90	1
Head	0	0	0	0	-0	90	1
LeftShoulder	0	0	0	0	0	0	1
LeftArm	0	0	0	0	0	0	1
LeftForeArm	0	0	0	0	0	0	1
LeftHand	0	0	0	0	0	0	1
RightShoulder	0	0	0	0	-0	180	1
RightArm	0	0	0	0	-0	180	1
RightForeArm	0	0	0	0	-0	180	1
RightHand	0	0	0	0	-0	180	1
LeftUpLeg	0	0	0	0	-0	-90	1
LeftLeg	0	0	0	0	-0	-90	1
LeftFoot	0	0	0	66.57150701	-66.57150701	-90	1
LeftToeBase	0	0	0	0	-90	0	1
RightUpLeg	0	0	0	0	-0	-90	1
RightLeg	0	0	0	0	-0	-90	1
RightFoot	0	0	0	66.57150701	-66.57150701	-90	1
RightToeBase	0	0	0	0	-90	0	1
[reference]
19	0	0	0	0	-0	0	1.0
20	0	0	0	0	-0	0	1.0
21	0	0	0	0	-0	0	1.0
22	0	0	0	0	-0	0	1.0
[Hips]
19	1.879869938	8.609645844	0.1771441251	179.4971313	-95.58301544	-180.7769318	1.0
20	1.969336987	8.628834724	0.1361083388	179.8450623	-96.28050995	-181.3251343	1.0
21	2.07136941	8.643661499	0.09252370894	178.0508881	-97.22664642	-179.6313477	1.0
22	2.189280033	8.637591362	0.03770932183	176.6265259	-98.21096802	-178.1711426	1.0
[Spine]
19	0	0.7478299737	0	-2.595704079	7.534486771	-88.74636841	1.0
20	0	0.7478299737	0	-3.001900911	7.509245872	-88.95719147	1.0
21	0	0.7478299737	0	-3.574723244	7.319406986	-89.15544891	1.0
22	0	0.7478299737	0	-4.310653687	7.333218575	-89.19316101	1.0
[Spine1]
19	0	2.049309969	0	8.457429886	2.484977722	-0.1312618703	1.0
20	0	2.049309969	0	8.463477135	2.457275629	0.6268246174	1.0
21	0	2.049309969	0	8.451322556	2.362956762	0.9240753055	1.0
22	0	2.049309969	0	8.766370773	2.361225605	0.9921059608	1.0
[Neck]
19	0	2.231709957	0	-12.79345894	11.7720623	-87.53694916	1.0
20	0	2.231709957	0	-12.3425436	11.66521549	-87.6412735	1.0
21	0	2.231709957	0	-12.05766201	11.72245407	-86.00666809	1.0
22	0	2.231709957	0	-12.00461292	11.56255722	-85.80641174	1.0
[Head]
19	0	1.413589954	0.1823999882	-9.353089333	4.501206398	-91.70349121	1.0
20	0	1.413589954	0.1823999882	-8.408239365	4.449298859	-92.15116119	1.0
21	0	1.413589954	0.1823999882	-6.836528301	4.715835571	-95.38038635	1.0
22	0	1.413589954	0.1823999882	-6.29249382	4.622945786	-96.04667664	1.0
[LeftShoulder]
19	0.3649300039	1.825889945	-0.04271000251	-8.304215431	-5.461204052	7.366184235	1.0
20	0.3649300039	1.825889945	-0.04271000251	-6.75243187	-5.733977795	7.99584341	1.0
21	0.3649300039	1.825889945	-0.04271000251	-6.013103962	-5.725784302	9.138170242	1.0
22	0.3649300039	1.825889945	-0.04271000251	-5.410527229	-6.258843422	9.921860695	1.0
[LeftArm]
19	1.24003005	0	0	15.6633625	19.12676239	-76.07331085	1.0
20	1.24003005	0	0	14.17863941	21.91339684	-74.90227509	1.0
21	1.24003005	0	0	10.90869999	24.80258369	-73.07514954	1.0
22	1.24003005	0	0	6.856167316	27.35899353	-70.53417969	1.0
[LeftForeArm]
19	2.847419977	0	0	3.758579493	-6.929547787	-15.87019348	1.0
20	2.847419977	0	0	4.45120573	-4.635903835	-15.64165211	1.0
21	2.847419977	0	0	6.395764828	-1.471289754	-16.91919708	1.0
22	2.847419977	0	0	8.150539398	1.170962811	-18.04878044	1.0
[LeftHand]
19	2.258270025	0	0	2.783260822	-1.573832154	0.5964543223	1.0
20	2.258270025	0	0	3.818884373	-0.2159624994	-2.105749846	1.0
21	2.258270025	0	0	6.174933434	0.8547740579	-0.8756870031	1.0
22	2.258270025	0	0	8.318552017	2.20140934	-0.9796443582	1.0
[RightShoulder]
19	-0.3646599948	1.825889945	-0.04271000251	-9.547994614	11.25197601	177.6350708	1.0
20	-0.3646599948	1.825889945	-0.04271000251	-9.670750618	11.27529335	177.1265259	1.0
21	-0.3646599948	1.825889945	-0.04271000251	-10.00120449	11.54014969	176.556076	1.0
22	-0.3646599948	1.825889945	-0.04271000251	-10.26868248	11.89060402	176.0939636	1.0
[RightArm]
19	-1.24003005	0	0	62.74961853	4.180859566	-101.231308	1.0
20	-1.24003005	0	0	65.4683075	6.389129639	-102.8927765	1.0
21	-1.24003005	0	0	66.80888367	8.460725784	-104.4101791	1.0
22	-1.24003005	0	0	67.62236023	10.3256731	-105.6151657	1.0
[RightForeArm]
19	-2.847419977	0	0	8.181562424	34.48727798	177.2118988	1.0
20	-2.847419977	0	0	9.874783516	43.90896606	177.1645813	1.0
21	-2.847419977	0	0	10.3167963	54.18184662	176.6477661	1.0
22	-2.847419977	0	0	7.875926018	63.52146912	173.5466919	1.0
[RightHand]
19	-2.258270025	0	0	8.062501907	11.54920292	170.2183838	1.0
20	-2.258270025	0	0	9.888158798	12.62317657	169.8856506	1.0
21	-2.258270025	0	0	11.04125786	13.08675671	171.3759918	1.0
22	-2.258270025	0	0	11.04222012	12.4854126	172.2870636	1.0
[LeftUpLeg]
19	0.9119900465	0	0	-5.237298489	-5.041358471	89.33127594	1.0
20	0.9119900465	0	0	-2.798864365	-5.962007523	89.86960602	1.0
21	0.9119900465	0	0	-0.6848565936	-5.290590763	90.01189423	1.0
22	0.9119900465	0	0	0.6550898552	-5.331348896	90.04656219	1.0
[LeftLeg]
19	0	-4.371409893	0	16.55984116	-8.857160568	85.08613586	1.0
20	0	-4.371409893	0	10.16012573	-8.243564606	85.84197235	1.0
21	0	-4.371409893	0	4.260268211	-8.89607048	86.83901978	1.0
22	0	-4.371409893	0	-0.6251034737	-7.343682289	87.98934937	1.0
[LeftFoot]
19	0	-3.918009996	0	-105.8101273	113.206459	-55.94046783	1.0
20	0	-3.918009996	0	-104.5243988	112.9337006	-57.58242035	1.0
21	0	-3.918009996	0	-104.598526	112.2926331	-60.26889038	1.0
22	0	-3.918009996	0	-108.7899475	110.7893372	-67.081604	1.0
[LeftToeBase]
19	0	-0.5927900076	1.367989898	0	0	0	1.0
20	0	-0.5927900076	1.367989898	0	0	0	1.0
21	0	-0.5927900076	1.367989898	0	0	0	1.0
22	0	-0.5927900076	1.367989898	0	0	0	1.0
[RightUpLeg]
19	-0.9119900465	0	0	-5.320108891	-10.41604233	94.18370056	1.0
20	-0.9119900465	0	0	-2.041566133	-10.73528481	93.64157104	1.0
21	-0.9119900465	0	0	1.411492705	-10.7651186	92.69500732	1.0
22	-0.9119900465	0	0	5.170698166	-9.731126785	91.61358643	1.0
[RightLeg]
19	0	-4.371409893	0	32.39745331	2.528621674	80.94677734	1.0
20	0	-4.371409893	0	32.14073944	3.106110096	81.14477539	1.0
21	0	-4.371409893	0	31.42447662	4.470843792	81.95923615	1.0
22	0	-4.371409893	0	28.15300751	5.498100281	83.71450043	1.0
[RightFoot]
19	0	-3.918009996	0	29.75673294	56.15523148	81.17702484	1.0
20	0	-3.918009996	0	35.61494446	54.79818344	85.94142151	1.0
21	0	-3.918009996	0	42.4191246	53.18506241	92.0793457	1.0
22	0	-3.918009996	0	45.05498123	52.35274887	93.97516632	1.0
[RightToeBase]
19	0	-0.5927900076	1.367989898	0	0	0	1.0
20	0	-0.5927900076	1.367989898	0	0	0	1.0
21	0	-0.5927900076	1.367989898	0	0	0	1.0
22	0	-0.5927900076	1.367989898	0	0	0	1.0
[EndOfFile]
